name rise49.8558peak67.6521fall70.3087.mot
datacolumns 19
datarows 24
range 4.57165300000000 4.60998000000000
endheader
time	ground_force1_vx	ground_force1_vy	ground_force1_vz	ground_force1_px	ground_force1_py	ground_force1_pz	ground_force2_vx	ground_force2_vy	ground_force2_vz	ground_force2_px	ground_force2_py	ground_force2_pz	ground_torque1_x	ground_torque1_y	ground_torque1_z	ground_torque2_x	ground_torque2_y	ground_torque2_z	
4.57165300000000	62.96432900000000	691.38998600000002	58.91342900000000	0.34529900000000	0.00000000000000	0.11134900000000	-8.86049000000000	53.59659600000000	1.52193000000000	-0.02098800000000	0.00000000000000	-0.07925000000000	0.00000000000000	26.67663200000000	0.00000000000000	0.00000000000000	-1.81800400000000	0.00000000000000	
4.57331800000000	62.66238500000000	695.15558899999996	59.30672500000000	0.34432900000000	0.00000000000000	0.11133800000000	-7.45833200000000	46.86027000000000	1.36843500000000	-0.02646400000000	0.00000000000000	-0.07867800000000	0.00000000000000	26.88696700000000	0.00000000000000	0.00000000000000	-1.53403100000000	0.00000000000000	
4.57498000000000	62.36072200000000	698.88753999999994	59.70596600000000	0.34339400000000	0.00000000000000	0.11132500000000	-6.13587000000000	40.16025700000000	1.20403900000000	-0.03224300000000	0.00000000000000	-0.07805500000000	0.00000000000000	27.10349500000000	0.00000000000000	0.00000000000000	-1.26580700000000	0.00000000000000	
4.57664500000000	62.05960600000000	702.58282299999996	60.11035600000000	0.34249500000000	0.00000000000000	0.11131100000000	-4.90879900000000	33.60392700000000	1.03315600000000	-0.03834400000000	0.00000000000000	-0.07737000000000	0.00000000000000	27.32570900000000	0.00000000000000	0.00000000000000	-1.01639600000000	0.00000000000000	
4.57832600000000	61.75924200000000	706.23823100000004	60.51901100000000	0.34163000000000	0.00000000000000	0.11129600000000	-3.79186800000000	27.31102900000000	0.86073700000000	-0.04479200000000	0.00000000000000	-0.07660900000000	0.00000000000000	27.55304500000000	0.00000000000000	0.00000000000000	-0.78872100000000	0.00000000000000	
4.57998300000000	61.45977800000000	709.85037399999999	60.93096500000000	0.34079900000000	0.00000000000000	0.11127900000000	-2.79770400000000	21.40452300000000	0.69194300000000	0.00000000000000	0.00000000000000	0.00000000000000	0.00000000000000	27.78487800000000	0.00000000000000	0.00000000000000	-0.33767900000000	0.00000000000000	
4.58165200000000	61.16130400000000	713.41569600000003	61.34517300000000	0.34000200000000	0.00000000000000	0.11126000000000	-1.93568500000000	16.00026700000000	0.53178900000000	0.00000000000000	0.00000000000000	0.00000000000000	0.00000000000000	28.02053400000000	0.00000000000000	0.00000000000000	-0.23214000000000	0.00000000000000	
4.58331700000000	60.86385800000000	716.93049399999995	61.76052200000000	0.33923800000000	0.00000000000000	0.11124000000000	-1.21103600000000	11.19694600000000	0.38477200000000	0.00000000000000	0.00000000000000	0.00000000000000	0.00000000000000	28.25928900000000	0.00000000000000	0.00000000000000	-0.14366900000000	0.00000000000000	
4.58498000000000	60.56742400000000	720.39093100000002	62.17583600000000	0.33850600000000	0.00000000000000	0.11121900000000	-0.62426800000000	7.06766700000000	0.25455200000000	0.00000000000000	0.00000000000000	0.00000000000000	0.00000000000000	28.50037600000000	0.00000000000000	0.00000000000000	-0.07228400000000	0.00000000000000	
4.58665000000000	60.27193600000000	723.79305999999997	62.58988500000000	0.33780500000000	0.00000000000000	0.11119500000000	-0.17105500000000	3.65434700000000	0.14373000000000	0.00000000000000	0.00000000000000	0.00000000000000	0.00000000000000	28.74299100000000	0.00000000000000	0.00000000000000	-0.01740000000000	0.00000000000000	
4.58831900000000	59.97728200000000	727.13283500000000	63.00139400000000	0.33713300000000	0.00000000000000	0.11117000000000	0.00000000000000	0.00000000000000	0.00000000000000	0.00000000000000	0.00000000000000	0.00000000000000	0.00000000000000	28.98629400000000	0.00000000000000	0.00000000000000	0.00000000000000	0.00000000000000	
4.58998800000000	59.68330200000000	730.40613599999995	63.40904700000000	0.33649000000000	0.00000000000000	0.11114200000000	0.00000000000000	0.00000000000000	0.00000000000000	0.00000000000000	0.00000000000000	0.00000000000000	0.00000000000000	29.22941800000000	0.00000000000000	0.00000000000000	0.00000000000000	0.00000000000000	
4.59165100000000	59.38979800000000	733.60878700000001	63.81150000000000	0.33587500000000	0.00000000000000	0.11111300000000	0.00000000000000	0.00000000000000	0.00000000000000	0.00000000000000	0.00000000000000	0.00000000000000	0.00000000000000	29.47147200000000	0.00000000000000	0.00000000000000	0.00000000000000	0.00000000000000	
4.59331500000000	59.09653100000000	736.73657300000002	64.20738600000000	0.33528400000000	0.00000000000000	0.11108200000000	0.00000000000000	0.00000000000000	0.00000000000000	0.00000000000000	0.00000000000000	0.00000000000000	0.00000000000000	29.71154800000000	0.00000000000000	0.00000000000000	0.00000000000000	0.00000000000000	
4.59498600000000	58.80322600000000	739.78526299999999	64.59532700000000	0.33471800000000	0.00000000000000	0.11104900000000	0.00000000000000	0.00000000000000	0.00000000000000	0.00000000000000	0.00000000000000	0.00000000000000	0.00000000000000	29.94872400000000	0.00000000000000	0.00000000000000	0.00000000000000	0.00000000000000	
4.59664600000000	58.50957500000000	742.75063000000000	64.97393599999999	0.33417400000000	0.00000000000000	0.11101400000000	0.00000000000000	0.00000000000000	0.00000000000000	0.00000000000000	0.00000000000000	0.00000000000000	0.00000000000000	30.18207100000000	0.00000000000000	0.00000000000000	0.00000000000000	0.00000000000000	
4.59831600000000	58.21524000000000	745.62846900000000	65.34183299999999	0.33365000000000	0.00000000000000	0.11097600000000	0.00000000000000	0.00000000000000	0.00000000000000	0.00000000000000	0.00000000000000	0.00000000000000	0.00000000000000	30.41065600000000	0.00000000000000	0.00000000000000	0.00000000000000	0.00000000000000	
4.59998300000000	57.91985700000000	748.41461700000002	65.69764600000001	0.33314500000000	0.00000000000000	0.11093700000000	0.00000000000000	0.00000000000000	0.00000000000000	0.00000000000000	0.00000000000000	0.00000000000000	0.00000000000000	30.63355300000000	0.00000000000000	0.00000000000000	0.00000000000000	0.00000000000000	
4.60164500000000	57.62303900000000	751.10497499999997	66.04002300000001	0.33265700000000	0.00000000000000	0.11089600000000	0.00000000000000	0.00000000000000	0.00000000000000	0.00000000000000	0.00000000000000	0.00000000000000	0.00000000000000	30.84984000000000	0.00000000000000	0.00000000000000	0.00000000000000	0.00000000000000	
4.60332000000000	57.32437700000000	753.69552599999997	66.36763999999999	0.33218300000000	0.00000000000000	0.11085200000000	0.00000000000000	0.00000000000000	0.00000000000000	0.00000000000000	0.00000000000000	0.00000000000000	0.00000000000000	31.05861200000000	0.00000000000000	0.00000000000000	0.00000000000000	0.00000000000000	
4.60500100000000	57.02344600000000	756.18235400000003	66.67920599999999	0.33172200000000	0.00000000000000	0.11080700000000	0.00000000000000	0.00000000000000	0.00000000000000	0.00000000000000	0.00000000000000	0.00000000000000	0.00000000000000	31.25898000000000	0.00000000000000	0.00000000000000	0.00000000000000	0.00000000000000	
4.60665200000000	56.71980900000000	758.56166399999995	66.97347200000000	0.33127100000000	0.00000000000000	0.11075900000000	0.00000000000000	0.00000000000000	0.00000000000000	0.00000000000000	0.00000000000000	0.00000000000000	0.00000000000000	31.45008100000000	0.00000000000000	0.00000000000000	0.00000000000000	0.00000000000000	
4.60832000000000	56.41301700000000	760.82979799999998	67.24923600000000	0.33082900000000	0.00000000000000	0.11070900000000	0.00000000000000	0.00000000000000	0.00000000000000	0.00000000000000	0.00000000000000	0.00000000000000	0.00000000000000	31.63107700000000	0.00000000000000	0.00000000000000	0.00000000000000	0.00000000000000	
4.60998000000000	56.10261600000000	762.98325599999998	67.50535100000000	0.33039300000000	0.00000000000000	0.11065800000000	0.00000000000000	0.00000000000000	0.00000000000000	0.00000000000000	0.00000000000000	0.00000000000000	0.00000000000000	31.80116600000000	0.00000000000000	0.00000000000000	0.00000000000000	0.00000000000000	
